<svg width="40" height="41" viewBox="0 0 40 41" fill="none" xmlns="http://www.w3.org/2000/svg">
<path d="M19.998 16.2455C23.5803 16.2005 26.9151 15.173 29.7549 13.4231C29.8699 13.3331 29.9999 13.1081 29.9999 12.8507C29.9999 12.8307 29.9999 12.8107 29.9974 12.7932C29.8324 9.93833 28.045 7.53598 25.5451 6.48855C25.2027 6.36355 24.9977 6.08857 24.9977 5.76359C24.9977 5.75859 24.9977 5.75109 24.9977 5.74359V1.99382C24.9977 1.30386 24.4377 0.743896 23.7478 0.743896C23.0578 0.743896 22.4978 1.30386 22.4978 1.99382V4.99364C22.4978 5.40861 22.1629 5.74359 21.7479 5.74359H18.2481C17.8331 5.74359 17.4981 5.40861 17.4981 4.99364V1.99382C17.4981 1.30386 16.9382 0.743896 16.2482 0.743896C15.5583 0.743896 14.9983 1.30386 14.9983 1.99382V5.74359C14.9833 6.05607 14.7833 6.31606 14.5033 6.41605C11.9385 7.49098 10.1436 9.91584 9.99859 12.7757C9.99609 12.8107 9.99609 12.8282 9.99609 12.8482C9.99609 13.1031 10.1236 13.3306 10.3211 13.4656C12.7184 15.223 15.7232 16.2779 18.9755 16.2779C19.3355 16.2779 19.693 16.2654 20.0455 16.2404L19.998 16.2455ZM24.9977 8.24594C26.3776 8.24594 27.4975 9.36587 27.4975 10.7458C27.4975 12.1257 26.3776 13.2456 24.9977 13.2456C23.6178 13.2456 22.4978 12.1257 22.4978 10.7458C22.4978 9.36587 23.6178 8.24594 24.9977 8.24594ZM14.9983 8.24594C16.3782 8.24594 17.4981 9.36587 17.4981 10.7458C17.4981 12.1257 16.3782 13.2456 14.9983 13.2456C13.6184 13.2456 12.4984 12.1257 12.4984 10.7458C12.4984 9.36587 13.6184 8.24594 14.9983 8.24594Z" fill="white"/>
<path d="M32.498 20.7452V18.2453C35.5378 15.4355 37.4502 11.4432 37.4977 7.00352C37.4977 6.30356 36.9377 5.74609 36.2478 5.74609C35.5578 5.74609 34.9979 6.30606 34.9979 6.99602C34.9529 9.77585 33.9204 12.3082 32.2355 14.2606C30.0457 16.7054 26.8609 18.2453 23.3136 18.2453C23.2636 18.2453 23.2136 18.2453 23.1661 18.2453H16.824C16.769 18.2453 16.7015 18.2478 16.6365 18.2478C13.1017 18.2478 9.92689 16.7179 7.73453 14.2831C6.06213 12.3307 5.03719 9.80085 4.99969 7.03102C4.99969 6.33356 4.43973 5.77359 3.74977 5.77359C3.05981 5.77359 2.49985 6.33356 2.49985 7.02352C2.55484 11.4632 4.46473 15.443 7.48954 18.2378L7.49954 20.7477C0 20.8977 0 24.2975 0 29.4221C0 30.1121 0.559966 30.6721 1.24992 30.6721C1.93988 30.6721 2.49985 30.1121 2.49985 29.4221C2.49985 25.1224 2.49985 23.4225 7.49954 23.2475C7.57704 26.0224 8.11201 28.6497 9.02945 31.087C8.07201 31.102 7.28956 31.527 6.67459 32.122C5.56216 33.6819 4.8972 35.6268 4.8972 37.7266C4.8972 38.2266 4.9347 38.7191 5.00719 39.1991L4.99969 39.494C4.99969 40.184 5.55966 40.744 6.24962 40.744C6.93958 40.744 7.49954 40.184 7.49954 39.494V39.1441C7.44455 38.7841 7.41205 38.3666 7.41205 37.9441C7.41205 36.4767 7.79702 35.0968 8.47198 33.9044C8.88446 33.5244 9.47442 33.2619 10.1219 33.2444C11.5918 35.9817 14.2891 37.8916 17.4564 38.2391L17.4989 35.7443H22.4986V38.2441C25.7084 37.8916 28.4083 35.9817 29.8482 33.2944C29.8782 33.2444 29.8857 33.2444 29.8932 33.2444C30.5281 33.2444 31.1081 33.4819 31.5506 33.8719C32.2055 35.0268 32.5955 36.4092 32.5955 37.8841C32.5955 38.3291 32.5605 38.7641 32.493 39.1891L32.498 39.4915C32.498 40.1815 33.058 40.7415 33.7479 40.7415C34.4379 40.7415 34.9979 40.1815 34.9979 39.4915V39.1416C35.0604 38.7291 35.0954 38.2516 35.0954 37.7641C35.0954 35.6668 34.4304 33.7244 33.303 32.137C32.708 31.572 31.9256 31.147 31.0531 30.9721C31.8931 28.6797 32.428 26.0349 32.498 23.2725C37.4977 23.2425 37.4977 25.0424 37.4977 29.4171C37.4977 30.1071 38.0577 30.6671 38.7476 30.6671C39.4376 30.6671 39.9976 30.1071 39.9976 29.4171C39.9976 24.3425 39.9976 20.9452 32.498 20.7452ZM22.4986 33.2444H17.4989V30.7446H22.4986V33.2444ZM22.4986 28.2447H17.4989V25.7449H22.4986V28.2447ZM22.4986 23.245H17.4989V20.7452H22.4986V23.245Z" fill="white"/>
</svg>
