<svg width="45" height="46" viewBox="0 0 45 46" fill="none" xmlns="http://www.w3.org/2000/svg">
<path d="M26.8217 10.2417C28.7396 10.0537 30.5385 10.5055 31.5617 11.3119C32.0369 11.6865 32.7316 11.5908 33.1133 11.0983C33.4952 10.606 33.4195 9.90316 32.9443 9.52863C31.3656 8.28444 28.9611 7.78705 26.6679 8.01169C24.3597 8.23782 21.919 9.22012 20.3534 11.2403C19.9718 11.7327 20.0476 12.4356 20.5228 12.81C20.998 13.1844 21.6927 13.0886 22.0744 12.5961C23.1408 11.22 24.9188 10.4281 26.8217 10.2417Z" fill="#504CA0"/>
<path fill-rule="evenodd" clip-rule="evenodd" d="M17.456 27.628C15.1036 25.4363 13.502 22.4045 13.1262 18.9041C12.2819 11.038 17.9481 3.7843 25.7821 2.70247C33.6161 1.62065 40.6513 7.12039 41.4956 14.9865C42.3399 22.8526 36.6737 30.1063 28.8397 31.1881C25.3537 31.6695 22.0257 30.8477 19.3312 29.094L20.01 31.4559L12.6952 40.8201L7.68603 36.9042L15.0008 27.54L17.456 27.628ZM28.4869 27.9013C22.4608 28.7335 17.0491 24.5029 16.3996 18.4521C15.7502 12.4013 20.1088 6.82144 26.1349 5.98928C32.161 5.15711 37.5727 9.38772 38.2222 15.4385C38.8717 21.4893 34.513 27.0692 28.4869 27.9013Z" fill="#504CA0"/>
<path d="M11.2764 42.3304L6.2672 38.4145L4.94741 40.1042C4.2047 41.055 4.35016 42.4101 5.2723 43.131L6.94204 44.4363C7.86418 45.1572 9.21379 44.9708 9.9565 44.02L11.2764 42.3304Z" fill="#504CA0"/>
</svg>
