<svg width="40" height="41" viewBox="0 0 40 41" fill="none" xmlns="http://www.w3.org/2000/svg">
<path fill-rule="evenodd" clip-rule="evenodd" d="M35.998 8.7439C35.998 7.6439 35.098 6.7439 33.998 6.7439H5.99805C4.89805 6.7439 3.99805 7.6439 3.99805 8.7439V12.7439H35.998V8.7439ZM31.998 2.7439C31.998 1.6439 31.098 0.743896 29.998 0.743896H9.99805C8.89805 0.743896 7.99805 1.6439 7.99805 2.7439V4.7439H31.998V2.7439ZM37.998 14.7439H1.99805C0.898047 14.7439 -0.00195312 15.6439 -0.00195312 16.7439V38.7439C-0.00195312 39.8439 0.898047 40.7439 1.99805 40.7439H37.998C39.098 40.7439 39.998 39.8439 39.998 38.7439V16.7439C39.998 15.6439 39.098 14.7439 37.998 14.7439ZM27.998 28.7439C27.998 29.8439 27.098 30.7439 25.998 30.7439H13.998C12.898 30.7439 11.998 29.8439 11.998 28.7439V24.7439H13.998V28.7439H25.998V24.7439H27.998V28.7439Z" fill="white"/>
</svg>
