<svg width="41" height="41" viewBox="0 0 41 41" fill="none" xmlns="http://www.w3.org/2000/svg">
<path d="M23.297 40.7437L20.0675 33.1554C23.1781 32.0063 26.0906 30.4609 28.7851 28.658L23.297 40.7437ZM8.45736 21.5452L0.869141 18.3158L12.9548 12.8277C11.1519 15.5222 9.60649 18.4347 8.45736 21.5452ZM40.0981 1.51472C40.0981 1.51472 30.2908 -2.68754 19.0769 8.52837C14.738 12.8673 12.1425 17.6422 10.4584 21.8226C9.90368 23.3086 10.2801 24.9332 11.3698 26.0427L15.5899 30.243C16.6796 31.3525 18.3042 31.7091 19.7902 31.1544C24.0301 29.5297 28.7455 26.8748 33.0844 22.5359C44.2983 11.3219 40.0981 1.51472 40.0981 1.51472ZM26.0906 15.5222C24.5452 13.9768 24.5452 11.4606 26.0906 9.91526C27.636 8.36987 30.1522 8.36987 31.6975 9.91526C33.2231 11.4606 33.2429 13.9768 31.6975 15.5222C30.1522 17.0676 27.636 17.0676 26.0906 15.5222ZM9.64612 40.3672L16.8579 33.1554C16.1843 32.9771 15.5305 32.6799 14.9361 32.2639L6.85254 40.3672H9.64612ZM1.24558 40.3672H4.03916L13.4898 30.9364L10.6764 28.1428L1.24558 37.5736V40.3672ZM1.24558 34.7603L9.34893 26.6767C8.93287 26.0823 8.63568 25.4483 8.45736 24.7549L1.24558 31.9667V34.7603Z" fill="white"/>
</svg>
